<svg xmlns="http://www.w3.org/2000/svg" version="1.1" xmlns:xlink="http://www.w3.org/1999/xlink" xmlns:svgjs="http://svgjs.dev/svgjs" width="1500" height="1500" viewBox="0 0 1500 1500"><rect width="1500" height="1500" fill="#ffffff"></rect><g transform="matrix(0.6666666666666666,0,0,0.6666666666666666,249.39393939393938,562.5048883594523)"><svg viewBox="0 0 396 149" data-background-color="#6936f5" preserveAspectRatio="xMidYMid meet" height="564" width="1500" xmlns="http://www.w3.org/2000/svg" xmlns:xlink="http://www.w3.org/1999/xlink"><g id="tight-bounds" transform="matrix(1,0,0,1,0.2400000000000091,-0.2000754403148619)"><svg viewBox="0 0 395.52 149.40015088062972" height="149.40015088062972" width="395.52"><g><svg viewBox="0 0 395.52 149.40015088062972" height="149.40015088062972" width="395.52"><g><svg viewBox="0 0 395.52 149.40015088062972" height="149.40015088062972" width="395.52"><g id="textblocktransform"><svg viewBox="0 0 395.52 149.40015088062972" height="149.40015088062972" width="395.52" id="textblock"><g><svg viewBox="0 0 395.52 106.66326269727475" height="106.66326269727475" width="395.52"><rect width="395.52" height="106.66326269727475" x="0" y="0" opacity="1" fill="#000000" data-fill-palette-color="tertiary"></rect><g transform="matrix(1,0,0,1,23.461705032,23.461705032)"><svg width="348.596589936" viewBox="3.1 -34.55 203.64000000000001 34.9" height="59.739852633274744" data-palette-color="#6936f5"><path d="M22.65 0L9.6 0Q7.3-0.05 5.9-0.73 4.5-1.4 3.8-2.95 3.1-4.5 3.1-7.1L3.1-7.1 3.1-28.25Q3.1-30.9 4.65-32.58 6.2-34.25 8.75-34.25L8.75-34.25Q11.75-34.25 13.18-33.15 14.6-32.05 14.6-28.7L14.6-28.7 14.6-8.65 23.15-8.65Q26.05-8.65 27.23-7.8 28.4-6.95 28.4-4.3L28.4-4.3Q28.4-1.6 27.05-0.8 25.7 0 22.65 0L22.65 0ZM45.4-28.7L45.4-7.5Q45.4-3.6 43.95-1.8 42.5 0 39.55 0L39.55 0Q36.65 0 35.27-1.55 33.9-3.1 33.9-7.1L33.9-7.1 33.9-28.25Q33.9-34.25 39.55-34.25L39.55-34.25Q42.45-34.25 43.92-33.15 45.4-32.05 45.4-28.7L45.4-28.7ZM67.19-8.15L67.19-8.15Q69.75-8.15 70.52-9.45 71.3-10.75 71.3-13.9L71.3-13.9Q71.3-15.4 71.32-20.83 71.34-26.25 71.34-29.1L71.34-29.1Q71.34-31.75 72.62-32.98 73.89-34.2 77-34.2L77-34.2Q79.75-34.2 81.09-32.83 82.44-31.45 83-27.83 83.55-24.2 83.55-16.8L83.55-16.8Q83.55-13.65 82.82-11.05 82.09-8.45 80.82-6.63 79.55-4.8 77.94-3.43 76.34-2.05 74.5-1.25 72.64-0.45 70.84-0.05 69.05 0.35 67.3 0.35L67.3 0.35Q65.14 0.35 62.97-0.18 60.8-0.7 58.57-2 56.34-3.3 54.64-5.18 52.95-7.05 51.87-10.08 50.8-13.1 50.8-16.8L50.8-16.8Q50.8-24.2 51.39-27.83 51.99-31.45 53.45-32.83 54.89-34.2 57.89-34.2L57.89-34.2Q60.7-34.2 61.84-32.98 62.99-31.75 62.99-29.1L62.99-29.1Q62.99-26.2 63.02-20.83 63.05-15.45 63.05-13.95L63.05-13.95Q63.05-12.65 63.12-11.88 63.2-11.1 63.42-10.3 63.64-9.5 64.09-9.08 64.55-8.65 65.3-8.4 66.05-8.15 67.19-8.15ZM101.19-28.7L101.19-7.5Q101.19-3.6 99.74-1.8 98.29 0 95.34 0L95.34 0Q92.44 0 91.07-1.55 89.69-3.1 89.69-7.1L89.69-7.1 89.69-28.25Q89.69-34.25 95.34-34.25L95.34-34.25Q98.24-34.25 99.72-33.15 101.19-32.05 101.19-28.7L101.19-28.7ZM139.69-29.95L139.69-4.75Q139.69-2.55 138.39-1.28 137.09 0 134.59 0L134.59 0Q133.94 0 133.29-0.15 132.64-0.3 131.91-0.7 131.19-1.1 130.64-1.45 130.09-1.8 129.26-2.53 128.44-3.25 127.97-3.68 127.49-4.1 126.49-5.05 125.49-6 125.04-6.45L125.04-6.45 115.89-15.1 115.89-4.25Q115.89-1.8 114.97-0.9 114.04 0 112.04 0L112.04 0Q109.84 0 108.79-1 107.74-2 107.74-4.35L107.74-4.35 107.74-28.5Q107.74-31.35 109.19-32.8 110.64-34.25 113.34-34.25L113.34-34.25Q115.19-34.25 116.31-33.68 117.44-33.1 118.99-31.6L118.99-31.6 131.64-19 131.64-29.9Q131.64-32.05 132.72-33.13 133.79-34.2 135.64-34.2L135.64-34.2Q137.79-34.2 138.74-33.2 139.69-32.2 139.69-29.95L139.69-29.95ZM164.89-25.85L164.89-25.85Q164.89-27.4 162.84-27.4L162.84-27.4Q160.74-27.4 159.24-25.05 157.74-22.7 157.74-17.2L157.74-17.2Q157.74-12.1 159.46-9.78 161.19-7.45 163.54-7.45L163.54-7.45Q164.29-7.45 164.91-7.75 165.54-8.05 165.94-8.65 166.34-9.25 166.34-10.1L166.34-10.1Q165.14-10.1 164.26-10.55 163.39-11 162.99-11.68 162.59-12.35 162.59-13.15L162.59-13.15Q162.59-14.95 163.54-15.85 164.49-16.75 166.79-16.75L166.79-16.75 172.84-16.75Q175.74-16.75 177.34-15.5 178.94-14.25 178.94-11.1L178.94-11.1Q178.94-6.5 174.54-3.08 170.14 0.35 164.09 0.35L164.09 0.35Q158.54 0.35 154.21-1.65 149.89-3.65 147.36-7.63 144.84-11.6 144.84-17.05L144.84-17.05Q144.84-25.15 149.74-29.85 154.64-34.55 162.74-34.55L162.74-34.55Q165.94-34.55 168.49-34.08 171.04-33.6 172.71-32.8 174.39-32 175.51-30.88 176.64-29.75 177.11-28.5 177.59-27.25 177.59-25.9L177.59-25.9Q177.59-24.95 177.29-24.08 176.99-23.2 176.21-22.33 175.44-21.45 173.84-20.9 172.24-20.35 169.99-20.35L169.99-20.35Q166.69-20.35 165.79-21.33 164.89-22.3 164.89-25.85ZM198.99-15.7L201.44-15.7Q204.39-15.7 205.56-14.73 206.74-13.75 206.74-11.4L206.74-11.4Q206.74-9.35 205.36-8.55 203.99-7.75 200.94-7.75L200.94-7.75 198.99-7.75 198.99-4.6Q198.99-0.1 195.14-0.1L195.14-0.1Q190.99-0.1 190.99-4.95L190.99-4.95 190.99-7.75 187.99-7.75Q183.54-7.75 183.54-11.6L183.54-11.6Q183.54-13.5 184.51-14.6 185.49-15.7 188.14-15.7L188.14-15.7 190.99-15.7 190.99-18.05Q190.99-21 191.96-22.15 192.94-23.3 195.34-23.3L195.34-23.3Q196.69-23.3 197.49-22.68 198.29-22.05 198.64-20.8 198.99-19.55 198.99-17.5L198.99-17.5 198.99-15.7Z" opacity="1" transform="matrix(1,0,0,1,0,0)" fill="#ffffff" class="wordmark-text-0" data-fill-palette-color="quaternary" id="text-0"></path></svg></g></svg></g><g transform="matrix(1,0,0,1,83.0592,118.39411521327474)"><svg viewBox="0 0 229.40159999999997 31.00603566735498" height="31.00603566735498" width="229.40159999999997"><g transform="matrix(1,0,0,1,0,0)"><svg width="229.40159999999997" viewBox="3 -35.25 266.32 36" height="31.00603566735498" data-palette-color="#ffffff"><path d="M9.35 0L3 0 3-34.55 19.7-34.55 19-29.8 9.35-29.8 9.35-19.25 17.75-19.25 17.75-14.5 9.35-14.5 9.35 0ZM45.1 0L38.65 0 36.95-8.1 28.05-8.1 26.4 0 20.05 0 28.75-34.55 36.45-34.55 45.1 0ZM32.5-29.7L29.05-12.9 36-12.9 32.5-29.7ZM48-34.55L54.35-34.55 54.35-5.25 65.5-5.25 64.8 0 48 0 48-34.55ZM68.84-34.55L75.19-34.55 75.19-5.25 86.34-5.25 85.64 0 68.84 0 68.84-34.55ZM89.69-34.55L106.84-34.55 106.19-29.8 96.04-29.8 96.04-19.9 104.89-19.9 104.89-15.2 96.04-15.2 96.04-4.8 106.84-4.8 106.84 0 89.69 0 89.69-34.55ZM132.94-34.55L132.94 0 124.84 0 116.09-28.3Q116.49-24.7 116.71-21.68 116.94-18.65 116.94-14.5L116.94-14.5 116.94 0 111.34 0 111.34-34.55 119.39-34.55 128.14-6.25Q127.84-8.05 127.56-11.35 127.29-14.65 127.29-18.05L127.29-18.05 127.29-34.55 132.94-34.55ZM160.28-35.25Q162.93-35.25 164.96-34.38 166.98-33.5 168.88-31.7L168.88-31.7 165.83-28.05Q164.53-29.25 163.31-29.83 162.08-30.4 160.63-30.4L160.63-30.4Q157.63-30.4 155.93-27.4 154.23-24.4 154.23-17.35L154.23-17.35Q154.23-10.4 155.93-7.38 157.63-4.35 160.73-4.35L160.73-4.35Q162.28-4.35 163.43-4.98 164.58-5.6 166.13-6.9L166.13-6.9 169.18-3.4Q167.58-1.6 165.33-0.43 163.08 0.75 160.28 0.75L160.28 0.75Q154.43 0.75 150.98-3.8 147.53-8.35 147.53-17.35L147.53-17.35Q147.53-23.3 149.18-27.3 150.83-31.3 153.71-33.27 156.58-35.25 160.28-35.25L160.28-35.25ZM184.03-35.25Q190.13-35.25 193.43-30.8 196.73-26.35 196.73-17.3L196.73-17.3Q196.73-8.35 193.43-3.8 190.13 0.75 184.03 0.75L184.03 0.75Q177.98 0.75 174.66-3.75 171.33-8.25 171.33-17.25L171.33-17.25Q171.33-26.15 174.66-30.7 177.98-35.25 184.03-35.25L184.03-35.25ZM184.03-30.45Q180.98-30.45 179.51-27.4 178.03-24.35 178.03-17.25L178.03-17.25Q178.03-10.1 179.53-7.13 181.03-4.15 184.03-4.15L184.03-4.15Q187.13-4.15 188.61-7.1 190.08-10.05 190.08-17.3L190.08-17.3Q190.08-24.4 188.58-27.43 187.08-30.45 184.03-30.45L184.03-30.45ZM209.18-34.55Q213.53-34.55 216.7-33.23 219.88-31.9 221.85-28.13 223.83-24.35 223.83-17.45L223.83-17.45Q223.83-7.7 219.95-3.85 216.08 0 209.83 0L209.83 0 201.48 0 201.48-34.55 209.18-34.55ZM210.13-29.8L207.83-29.8 207.83-4.75 210.18-4.75Q212.43-4.75 213.95-5.8 215.48-6.85 216.35-9.65 217.23-12.45 217.23-17.45L217.23-17.45Q217.23-22.55 216.3-25.25 215.38-27.95 213.85-28.88 212.33-29.8 210.13-29.8L210.13-29.8ZM228.58-34.55L245.73-34.55 245.08-29.8 234.93-29.8 234.93-19.9 243.78-19.9 243.78-15.2 234.93-15.2 234.93-4.8 245.73-4.8 245.73 0 228.58 0 228.58-34.55ZM258.97-35.25Q261.97-35.25 264.27-34.2 266.57-33.15 268.52-31.05L268.52-31.05 265.57-27.65Q264.02-29.05 262.55-29.75 261.07-30.45 259.42-30.45L259.42-30.45Q257.52-30.45 256.42-29.28 255.32-28.1 255.32-26.2L255.32-26.2Q255.32-24.3 256.47-23.1 257.62-21.9 260.97-20.6L260.97-20.6Q265.27-18.85 267.3-16.5 269.32-14.15 269.32-9.85L269.32-9.85Q269.32-6.9 267.97-4.48 266.62-2.05 264.1-0.65 261.57 0.75 258.22 0.75L258.22 0.75Q254.77 0.75 252.22-0.48 249.67-1.7 247.57-3.95L247.57-3.95 250.77-7.45Q252.57-5.85 254.22-5 255.87-4.15 257.82-4.15L257.82-4.15Q260.12-4.15 261.4-5.58 262.67-7 262.67-9.45L262.67-9.45Q262.67-11.6 261.55-12.98 260.42-14.35 257.37-15.5L257.37-15.5Q252.77-17.35 250.75-19.75 248.72-22.15 248.72-25.75L248.72-25.75Q248.72-28.5 250.05-30.65 251.37-32.8 253.72-34.02 256.07-35.25 258.97-35.25L258.97-35.25Z" opacity="1" transform="matrix(1,0,0,1,0,0)" fill="#000000" class="slogan-text-1" data-fill-palette-color="secondary" id="text-1"></path></svg></g></svg></g></svg></g></svg></g><g></g></svg></g><defs></defs></svg><rect width="395.52" height="149.40015088062972" fill="none" stroke="none" visibility="hidden"></rect></g></svg></g></svg>